<svg id="svg" version="1.1" xmlns="http://www.w3.org/2000/svg" xmlns:xlink="http://www.w3.org/1999/xlink" width="200" height="150" viewBox="0, 0, 400,200"><g id="svgg"><path id="path0" d="M0.000 88.245 L 0.000 176.500 37.958 176.495 C 59.613 176.493,76.561 176.426,77.417 176.339 C 83.149 175.757,85.186 175.371,88.945 174.154 C 92.613 172.967,98.456 170.404,99.781 169.402 C 100.072 169.181,100.347 169.000,100.392 169.000 C 100.722 169.000,105.729 165.686,106.167 165.178 C 106.212 165.125,106.550 164.862,106.917 164.595 C 109.518 162.695,113.651 158.486,116.036 155.306 C 117.841 152.898,119.667 150.185,119.667 149.908 C 119.667 149.791,119.723 149.669,119.792 149.639 C 120.225 149.446,123.509 142.626,123.860 141.191 C 123.964 140.765,124.140 140.229,124.252 140.000 C 124.364 139.771,124.764 138.533,125.140 137.250 C 129.046 123.938,127.729 109.254,121.551 97.250 C 121.032 96.242,120.565 95.379,120.512 95.333 C 120.460 95.287,120.251 94.897,120.047 94.466 C 119.581 93.475,118.094 91.165,117.043 89.798 C 116.600 89.222,116.036 88.450,115.790 88.083 C 115.544 87.717,114.963 87.004,114.500 86.500 C 111.141 82.844,111.131 82.827,111.829 82.167 C 112.027 81.979,112.757 80.604,113.995 78.083 C 118.941 68.022,120.649 54.155,118.235 43.667 C 118.098 43.071,117.873 42.096,117.735 41.500 C 117.282 39.538,115.666 34.538,115.043 33.167 C 113.839 30.518,112.048 27.016,111.802 26.830 C 111.739 26.782,111.607 26.557,111.509 26.330 C 111.238 25.704,110.638 24.740,110.031 23.955 C 109.732 23.567,109.052 22.636,108.520 21.886 C 107.621 20.619,106.795 19.603,105.493 18.167 C 105.203 17.846,104.593 17.160,104.139 16.642 C 102.370 14.626,97.580 10.630,94.726 8.790 C 89.768 5.592,85.550 3.693,78.917 1.671 C 77.960 1.380,74.909 0.697,73.750 0.515 C 73.108 0.415,72.283 0.280,71.917 0.216 C 71.550 0.152,55.219 0.075,35.625 0.045 L 0.000 -0.010 0.000 88.245 M319.917 0.116 C 319.465 0.177,315.953 0.931,306.000 3.108 C 304.121 3.519,302.171 3.931,301.667 4.023 C 299.041 4.503,297.992 4.708,297.083 4.917 C 296.533 5.043,294.996 5.382,293.667 5.669 C 292.337 5.956,289.487 6.594,287.333 7.087 C 285.179 7.580,283.192 8.021,282.917 8.066 C 282.043 8.211,281.439 8.334,280.625 8.535 L 279.833 8.730 279.833 91.089 C 279.833 136.387,279.882 174.135,279.942 174.974 L 280.050 176.500 300.067 176.499 C 311.076 176.498,320.488 176.448,320.983 176.389 L 321.883 176.281 321.776 169.849 C 321.717 166.311,321.669 126.648,321.668 81.708 L 321.667 0.000 321.042 0.025 C 320.698 0.039,320.192 0.080,319.917 0.116 M378.083 20.682 C 377.808 20.766,377.396 20.870,377.167 20.913 C 376.938 20.955,373.975 21.588,370.583 22.318 C 367.192 23.048,363.104 23.918,361.500 24.250 C 359.896 24.583,358.433 24.890,358.250 24.933 C 358.067 24.976,357.542 25.085,357.083 25.175 C 356.625 25.266,355.462 25.522,354.500 25.745 C 350.677 26.631,346.880 27.443,345.500 27.668 C 344.329 27.860,343.913 27.944,342.083 28.359 C 341.258 28.546,340.283 28.767,339.917 28.850 C 339.550 28.933,338.827 29.082,338.309 29.182 L 337.369 29.363 337.360 79.806 C 337.350 133.236,337.433 141.930,337.986 145.167 C 338.500 148.183,338.856 149.675,339.693 152.333 C 340.794 155.832,341.785 157.985,343.546 160.712 C 343.887 161.240,344.167 161.713,344.167 161.762 C 344.167 162.120,346.998 165.527,348.737 167.262 C 352.649 171.166,358.640 174.590,364.417 176.223 C 365.965 176.661,368.381 177.252,369.238 177.403 C 369.506 177.450,370.106 177.563,370.571 177.653 C 371.410 177.816,371.851 177.876,374.417 178.181 C 379.489 178.783,387.473 177.970,392.486 176.343 C 393.349 176.063,394.124 175.833,394.208 175.833 C 394.489 175.833,396.899 174.821,398.458 174.048 L 400.000 173.285 400.000 157.646 L 400.000 142.008 399.583 142.167 C 399.354 142.254,399.167 142.295,399.167 142.258 C 399.167 142.220,398.923 142.261,398.625 142.348 C 398.327 142.434,397.858 142.542,397.583 142.588 C 397.308 142.633,396.746 142.743,396.333 142.833 C 386.817 144.900,381.204 141.219,379.815 132.000 C 379.418 129.370,379.395 127.781,379.458 107.625 L 379.500 94.333 389.750 94.333 L 400.000 94.333 400.000 73.250 L 400.000 52.167 389.667 52.167 L 379.333 52.167 379.333 36.333 L 379.333 20.500 378.958 20.514 C 378.752 20.522,378.358 20.597,378.083 20.682 M66.417 42.022 C 67.058 42.123,67.733 42.215,67.917 42.227 C 68.100 42.240,68.287 42.292,68.333 42.344 C 68.379 42.396,68.891 42.613,69.472 42.828 C 72.184 43.830,75.361 46.844,76.242 49.250 C 76.410 49.708,76.603 50.158,76.672 50.250 C 77.730 51.659,77.552 56.663,76.343 59.503 C 75.556 61.353,72.718 64.833,71.997 64.833 C 71.942 64.833,71.748 64.965,71.567 65.125 C 70.907 65.709,68.761 66.639,67.750 66.779 C 67.383 66.829,66.966 66.933,66.822 67.008 C 66.678 67.084,60.997 67.153,54.197 67.161 L 41.833 67.177 41.833 54.505 L 41.833 41.833 53.542 41.837 C 61.186 41.839,65.655 41.903,66.417 42.022 M198.833 50.021 C 197.688 50.098,195.700 50.316,194.417 50.507 C 193.133 50.697,191.577 50.921,190.958 51.005 C 188.511 51.337,182.212 53.201,179.833 54.298 C 179.421 54.488,178.746 54.755,178.333 54.891 C 177.475 55.175,173.969 56.794,173.837 56.968 C 173.789 57.031,173.412 57.260,173.000 57.476 C 170.024 59.033,166.857 60.989,166.694 61.370 C 166.664 61.441,166.569 61.500,166.484 61.500 C 166.290 61.500,163.544 63.523,162.047 64.769 C 159.593 66.812,155.503 70.920,153.852 73.000 C 153.378 73.596,152.906 74.187,152.802 74.313 C 151.637 75.731,148.167 80.755,148.167 81.026 C 148.167 81.112,147.896 81.606,147.565 82.123 C 146.819 83.290,144.333 88.158,144.333 88.453 C 144.333 88.572,144.038 89.363,143.678 90.210 C 142.220 93.636,140.530 99.381,140.182 102.092 C 140.088 102.821,139.899 104.167,139.761 105.083 C 138.914 110.710,138.941 117.235,139.838 123.667 C 140.023 124.996,140.215 126.383,140.264 126.750 C 140.313 127.117,140.431 127.717,140.528 128.083 C 140.624 128.450,140.735 128.938,140.775 129.167 C 140.814 129.396,140.895 129.733,140.955 129.917 C 141.014 130.100,141.080 130.347,141.101 130.466 C 141.247 131.289,142.529 135.126,143.284 136.997 C 143.784 138.236,144.221 139.384,144.255 139.547 C 144.424 140.366,148.002 147.140,149.134 148.786 C 149.310 149.041,149.814 149.794,150.256 150.458 C 150.698 151.123,151.121 151.667,151.196 151.667 C 151.272 151.667,151.333 151.750,151.333 151.852 C 151.333 151.954,151.525 152.273,151.759 152.560 C 151.993 152.848,152.480 153.496,152.841 154.000 C 154.222 155.925,160.254 162.105,162.167 163.553 C 162.671 163.935,163.683 164.730,164.417 165.321 C 166.569 167.056,172.139 170.551,174.333 171.545 C 180.456 174.316,183.176 175.389,184.982 175.748 C 185.129 175.777,186.300 176.065,187.583 176.387 C 190.818 177.198,192.179 177.473,194.333 177.748 C 194.746 177.801,195.271 177.878,195.500 177.920 C 206.432 179.929,223.797 176.516,234.753 170.206 C 235.660 169.684,237.915 168.272,238.000 168.173 C 238.046 168.120,238.286 167.988,238.534 167.879 C 238.888 167.723,241.532 165.854,242.416 165.134 C 242.508 165.059,243.071 164.619,243.667 164.157 C 245.453 162.771,249.241 159.199,250.880 157.355 C 252.605 155.415,255.471 151.882,255.630 151.500 C 255.687 151.362,255.794 151.175,255.869 151.083 C 255.943 150.992,256.327 150.429,256.722 149.833 C 257.117 149.237,257.669 148.412,257.948 148.000 C 261.728 142.409,265.399 132.552,266.731 124.417 C 267.842 117.624,267.712 108.600,266.407 102.026 C 265.791 98.922,265.416 97.480,264.515 94.750 C 264.243 93.925,263.983 93.046,263.938 92.796 C 263.738 91.679,261.594 86.852,259.625 83.083 C 259.024 81.934,257.498 79.462,256.691 78.333 C 256.265 77.737,255.829 77.085,255.722 76.883 C 255.615 76.681,255.446 76.419,255.345 76.300 C 255.245 76.181,254.920 75.768,254.623 75.383 C 251.877 71.821,248.424 68.132,245.604 65.745 C 245.065 65.290,244.416 64.729,244.162 64.500 C 243.302 63.724,242.920 63.428,241.083 62.109 C 238.708 60.403,236.695 59.078,236.076 58.813 C 235.805 58.697,235.471 58.512,235.333 58.402 C 234.922 58.074,231.267 56.130,231.042 56.120 C 230.927 56.115,230.833 56.061,230.833 55.999 C 230.833 55.937,230.290 55.676,229.625 55.420 C 228.960 55.163,227.817 54.705,227.083 54.402 C 225.395 53.703,223.760 53.133,221.333 52.398 C 218.720 51.606,217.605 51.346,215.333 50.998 C 207.954 49.867,204.329 49.653,198.833 50.021 M205.372 93.810 C 206.484 93.795,208.186 94.168,210.000 94.825 C 210.779 95.107,211.492 95.356,211.583 95.377 C 211.675 95.399,211.787 95.454,211.833 95.500 C 211.879 95.546,212.179 95.725,212.500 95.898 C 215.380 97.449,220.167 101.476,220.167 102.348 C 220.167 102.418,220.533 103.073,220.981 103.803 C 226.801 113.285,223.468 125.951,213.632 131.727 C 211.833 132.784,210.855 133.247,210.542 133.190 C 210.427 133.169,210.333 133.222,210.333 133.308 C 210.333 133.393,210.240 133.453,210.125 133.441 C 209.801 133.408,208.167 133.853,208.167 133.975 C 208.167 134.035,207.960 134.091,207.708 134.100 C 207.456 134.109,206.650 134.206,205.917 134.315 C 204.401 134.540,201.388 134.535,200.209 134.306 C 199.773 134.221,198.929 134.039,198.333 133.901 C 197.737 133.764,197.205 133.673,197.151 133.701 C 197.096 133.728,196.944 133.661,196.812 133.552 C 196.681 133.442,196.373 133.317,196.129 133.273 C 192.834 132.675,187.229 127.637,184.966 123.238 C 178.401 110.477,187.510 94.546,201.825 93.751 C 202.784 93.698,203.598 93.625,203.634 93.588 C 203.671 93.551,203.879 93.589,204.098 93.672 C 204.316 93.755,204.889 93.817,205.372 93.810 M75.141 109.440 C 77.041 109.602,79.801 111.135,81.835 113.158 C 88.910 120.196,85.141 132.175,75.196 134.255 C 73.940 134.518,73.955 134.518,55.375 134.508 L 41.833 134.500 41.833 121.818 L 41.833 109.135 58.125 109.257 C 67.085 109.324,74.743 109.407,75.141 109.440 M200.417 192.851 C 200.050 192.925,199.563 193.026,199.333 193.076 C 199.104 193.125,198.673 193.212,198.375 193.268 C 198.077 193.324,197.833 193.418,197.833 193.477 C 197.833 193.535,197.625 193.590,197.371 193.599 C 196.838 193.617,196.281 193.847,193.733 195.101 C 192.716 195.602,191.725 196.159,191.532 196.339 C 191.339 196.519,191.091 196.667,190.981 196.667 C 190.525 196.667,186.415 201.096,185.516 202.557 C 182.604 207.285,181.550 214.172,183.013 218.917 C 184.338 223.215,185.005 224.560,186.995 226.953 C 191.482 232.349,196.139 234.500,203.336 234.500 C 208.865 234.500,213.559 232.948,216.510 230.144 C 216.642 230.019,217.050 229.661,217.417 229.348 C 218.113 228.754,219.404 227.322,219.833 226.668 C 219.971 226.458,220.242 226.091,220.437 225.852 C 221.529 224.506,223.048 221.225,223.685 218.833 C 224.112 217.231,224.282 209.978,223.904 209.484 C 223.806 209.355,223.717 209.075,223.706 208.862 C 223.598 206.783,221.099 202.061,218.790 199.572 C 214.198 194.622,206.174 191.687,200.417 192.851 " stroke="none" fill="#3ccc84" fill-rule="evenodd"></path><path id="path1" d="" stroke="none" fill="#40cc84" fill-rule="evenodd"></path><path id="path2" d="" stroke="none" fill="#40cc84" fill-rule="evenodd"></path><path id="path3" d="" stroke="none" fill="#40cc84" fill-rule="evenodd"></path><path id="path4" d="" stroke="none" fill="#40cc84" fill-rule="evenodd"></path></g></svg>